<?xml version="1.0" standalone="no"?>
<!DOCTYPE svg PUBLIC "-//W3C//DTD SVG 20010904//EN"
 "http://www.w3.org/TR/2001/REC-SVG-20010904/DTD/svg10.dtd">
<svg version="1.0" xmlns="http://www.w3.org/2000/svg"
 width="332.000000pt" height="191.000000pt" viewBox="0 0 332.000000 191.000000"
 preserveAspectRatio="xMidYMid meet">

<g transform="translate(0.000000,191.000000) scale(0.100000,-0.100000)"
fill="#000000" stroke="none">
<path d="M3278 1858 c-13 -22 -32 -46 -43 -52 -10 -6 -25 -17 -33 -23 -7 -7
-20 -13 -27 -13 -8 0 -35 -13 -60 -29 -25 -16 -69 -38 -98 -49 -29 -11 -100
-38 -159 -60 -61 -24 -171 -54 -260 -72 -84 -17 -189 -40 -233 -51 -44 -11
-107 -24 -140 -29 -84 -13 -351 -94 -465 -142 -224 -95 -315 -151 -432 -269
-70 -70 -96 -106 -131 -176 -24 -48 -50 -105 -56 -125 l-12 -37 -117 59 c-175
88 -207 97 -376 111 -140 11 -311 6 -560 -16 -84 -8 -71 -22 16 -17 99 5 256
-26 358 -71 211 -92 286 -138 543 -337 172 -133 358 -257 452 -301 148 -70
260 -111 325 -120 36 -5 93 -13 127 -18 38 -6 76 -6 95 0 18 4 64 13 101 18
58 8 151 42 167 60 8 9 42 30 67 41 12 5 40 22 61 37 22 15 50 35 63 43 58 37
299 297 299 322 0 6 -28 -14 -62 -43 -155 -134 -183 -151 -311 -195 -163 -56
-290 -56 -487 0 -30 9 -76 25 -103 38 l-47 22 22 23 c49 52 208 124 373 168
344 92 502 175 612 322 15 21 34 42 40 46 7 4 13 16 13 25 -1 13 -6 10 -22
-11 -23 -32 -125 -83 -243 -122 -86 -29 -359 -103 -420 -115 -106 -19 -279
-84 -368 -137 -32 -20 -75 -57 -96 -83 l-38 -47 -63 35 -64 36 60 54 c65 60
132 105 221 151 75 38 187 85 238 101 22 6 54 16 70 22 17 5 95 27 175 48 266
72 434 139 560 224 54 36 144 108 148 119 4 8 64 76 125 140 61 66 46 85 -17
22 -48 -48 -141 -105 -172 -105 -6 0 -47 -16 -90 -36 -83 -38 -258 -85 -484
-129 -212 -42 -359 -85 -533 -156 -172 -71 -332 -197 -397 -312 -18 -32 -35
-56 -39 -55 -3 2 -23 14 -44 27 l-37 23 21 37 c12 20 28 43 36 52 7 8 13 20
13 25 0 16 120 123 203 180 71 49 149 90 319 167 20 9 43 17 51 17 7 0 76 20
151 45 76 25 146 45 156 45 24 0 432 135 468 154 15 8 61 31 102 51 66 32 172
99 265 168 38 28 137 132 178 187 17 24 41 53 54 66 13 13 23 32 23 44 0 29
-6 25 -32 -22z"/>
</g>
</svg>
